<svg id="Layer_1" data-name="Layer 1" xmlns="http://www.w3.org/2000/svg" viewBox="0 0 404.48 404.21"><title>r</title><path  d="M394.18,273.05c-11-1-103.93-24.05-103.93-24.05s40.5-71-26.72-123.47C245.93,110.65,192.25,84,143,120c-15.28,12.32-66.77,65.54-79.07,77.6-3,3-2.67,5.42,0,8C88.09,229.43,257.24,397,253.25,398.5c-24,9-97.33,18.33-168.8-32.15C46.72,339.69,11.58,292.83,3.66,228.17,2,214.75,1.18,203.29,2.16,190c2-27.49,10-53.22,22.09-78.5,24.13-50.29,66.26-75.5,84.23-86,36.44-21.32,79-24.29,95.72-24.08,77.38,0,126.85,41.9,149.7,66.35C431.25,150.5,402.25,252.83,394.18,273.05Z" transform="translate(-1.74 -1.4)" style="fill:#00bfa6"/><circle cx="192.01" cy="200.6" r="26.17" style="fill:#0f6d96"/></svg>